<?xml version="1.0" encoding="iso-8859-1"?>
<!-- Generator: Adobe Illustrator 19.0.0, SVG Export Plug-In . SVG Version: 6.00 Build 0)  -->
<svg version="1.1" id="Capa_1" xmlns="http://www.w3.org/2000/svg" xmlns:xlink="http://www.w3.org/1999/xlink" x="0px" y="0px"
	 viewBox="0 0 512 512" style="enable-background:new 0 0 512 512;" xml:space="preserve">
<path style="fill:#87D2F3;" d="M223.978,469.333h64v32h-64V469.333z"/>
<path style="fill:#FFFFFF;" d="M319.978,426.667v42.667h-32h-64h-32v-42.667H319.978z"/>
<path style="fill:#87D2F3;" d="M319.978,426.667h-128V339.52C104.6,304.174,62.419,204.686,97.765,117.308
	S232.6-12.251,319.978,23.096S449.536,157.93,414.19,245.308c-17.342,42.872-51.341,76.87-94.212,94.212V426.667z"/>
<g>
	<path style="fill:#2170A6;" d="M255.978,0C155.83,0.038,74.675,81.255,74.714,181.403c0.027,71.203,41.723,135.801,106.597,165.147
		v48.117h21.333V339.52c0.002-4.344-2.631-8.255-6.656-9.888c-81.919-33.131-121.47-126.398-88.339-208.318
		S234.048-0.156,315.967,32.975s121.47,126.398,88.339,208.318c-16.259,40.201-48.138,72.08-88.339,88.339
		c-4.025,1.633-6.658,5.544-6.656,9.888v55.147h21.333v-48.117c91.246-41.275,131.756-148.706,90.48-239.952
		C391.778,41.723,327.181,0.027,255.978,0z"/>
	<path style="fill:#2170A6;" d="M159.978,437.333h21.333v32c0,5.891,4.776,10.667,10.667,10.667h21.333v21.333
		c0,5.891,4.776,10.667,10.667,10.667h64c5.891,0,10.667-4.776,10.667-10.667V480h21.333c5.891,0,10.667-4.776,10.667-10.667v-32
		h21.333V416h-192V437.333z M277.311,490.667h-42.667V480h42.667V490.667z M309.311,458.667H202.644v-21.333h106.667V458.667z"/>
	<path style="fill:#2170A6;" d="M213.311,117.333c5.891,0,10.667,4.776,10.667,10.667h21.333c0-17.673-14.327-32-32-32
		s-32,14.327-32,32s14.327,32,32,32h85.333c17.673,0,32-14.327,32-32s-14.327-32-32-32c-17.673,0-32,14.327-32,32h21.333
		c0-5.891,4.776-10.667,10.667-10.667c5.891,0,10.667,4.776,10.667,10.667c0,5.891-4.776,10.667-10.667,10.667h-85.333
		c-5.891,0-10.667-4.776-10.667-10.667C202.644,122.109,207.42,117.333,213.311,117.333z"/>
	<path style="fill:#2170A6;" d="M245.311,181.333h21.333v213.333h-21.333V181.333z"/>
</g>
<g>
</g>
<g>
</g>
<g>
</g>
<g>
</g>
<g>
</g>
<g>
</g>
<g>
</g>
<g>
</g>
<g>
</g>
<g>
</g>
<g>
</g>
<g>
</g>
<g>
</g>
<g>
</g>
<g>
</g>
</svg>
